# xmcd
# 
# Track frame offsets:
#     150
#     18982
#     35005
#     50782
#     66342
#     83465
#     99447
#     114702
#     131625
#     146405
#     152170
#     167162
#     181547
#     198702
#     216460
#     228800
#     242200
#     261295
# 
# Disc length: 3758
# 
# Revision: 1
# Processed by: cddbd v1.5.2PL0 Copyright (c) Steve Scherf et al.
# Submitted via: fre:ac v1.1beta1pre5
# 
DISCID=020eac12
DTITLE=Various Artist - The ABC Country Store Live Concert
DYEAR=1994
DGENRE=Country
TTITLE0=Brent Parlane - My Only Wish Is Your Happiness
TTITLE1=Brent Parlane - Never In A Million Years
TTITLE2=Gina Jeffreys - If This Is Love
TTITLE3=Hugh McDonald - The Sliup Rails and The Spur
TTITLE4=Hugh McDonald - Diamantina River
TTITLE5=Anne Kirkpatrick - Game of Love
TTITLE6=Anne Kirkpatrick - Whites of Your Eyes
TTITLE7=Tess McKenna - The End Of A Rope
TTITLE8=Greg Champion - You Can Get Arrested for That
TTITLE9=Jane Saunders - Anything (For My Darling
TTITLE10=Saundrs, Kane and Del - Lonely Blue Heart
TTITLE11=The Kanes - Damned If I Do
TTITLE12=The Kanes - Get Rhythm
TTITLE13=Colin Buchanan - A Drovers Wife
TTITLE14=Colin Buchanan - I Want My Mummy
TTITLE15=Lee Kernaghan - Boys From The Bush
TTITLE16=Lee Kernaghan - She's My Ute
TTITLE17=Everyone - Will The Circle Be Broken
EXTD=YEAR: 1994
EXTT0=
EXTT1=
EXTT2=
EXTT3=
EXTT4=
EXTT5=
EXTT6=
EXTT7=
EXTT8=
EXTT9=
EXTT10=
EXTT11=
EXTT12=
EXTT13=
EXTT14=
EXTT15=
EXTT16=
EXTT17=
PLAYORDER=
